<svg width="783" height="380" viewBox="0 0 783 380" fill="none" xmlns="http://www.w3.org/2000/svg">
<path fill-rule="evenodd" clip-rule="evenodd" d="M125 1.59302C117.213 3.66102 106.545 8.94602 99.288 14.33C91.829 19.865 85.351 27.855 80.096 38C77.96 42.125 59.039 91.577 38.05 147.894C10.211 222.589 0.187008 250.587 0.992008 251.394C1.69001 252.094 8.65401 252.615 19.984 252.812C41.209 253.183 38.539 255.055 45.828 234.698C48.547 227.107 51.085 220.582 51.469 220.198C51.852 219.814 72.567 219.393 97.502 219.261L142.838 219.022L147.003 226.761C153.56 238.944 151.242 238 174.596 238C187.509 238 195.115 237.624 195.522 236.964C195.874 236.394 188.293 220.757 178.676 202.214C169.058 183.671 151.613 150.05 139.91 127.5C113.381 76.383 114.453 78.596 112.993 71.955C110.739 61.703 114.713 50.49 122.781 44.337C134.047 35.744 151.249 37.463 160.346 48.091C164.323 52.737 167.134 60.655 168.657 71.5L169.5 77.5L173.5 77.842C175.7 78.03 183.913 77.871 191.75 77.488L206 76.792V70.056C206 60.802 202.899 49.294 197.363 38C193.489 30.099 191.257 27.052 184.103 19.9C177.199 12.999 173.821 10.483 167 7.16004C162.325 4.88304 155.818 2.34005 152.54 1.51005C145.112 -0.371953 132.25 -0.332976 125 1.59302ZM353.775 70.75C351.123 73.774 342.081 90.322 342.612 91.181C342.89 91.631 347.513 92 352.885 92C364.206 92 362.866 92.899 373.376 78.25L380.012 69H367.661C357.15 69 355.081 69.261 353.775 70.75ZM333.51 116.75C330.333 125.413 321.268 149.756 313.366 170.846C305.465 191.936 299 209.837 299 210.627C299 211.81 301.137 212.012 311.199 211.781L323.397 211.5L327.449 200.093C330.349 191.927 332.068 188.466 333.5 187.913C335.877 186.995 370.203 186.958 374.452 187.87C377.144 188.447 377.805 189.516 381.956 200.001L386.509 211.5L398.38 211.783C409.974 212.059 410.238 212.017 409.707 209.986C409.408 208.843 399.564 183.858 387.831 154.465L366.5 101.022L352.894 101.011L339.288 101L333.51 116.75ZM109.012 148.89C118.384 167.805 125.903 183.43 125.721 183.613C125.239 184.094 64.856 184.19 64.377 183.71C64.155 183.489 65.081 180.367 66.434 176.772C67.787 173.178 73.162 158.371 78.379 143.869C83.597 129.366 88.177 116.69 88.559 115.701C88.94 114.711 89.864 114.036 90.612 114.201C91.36 114.365 99.64 129.976 109.012 148.89ZM539 122.314C535.975 123.02 531.7 124.467 529.5 125.528C524.106 128.131 516.998 135.356 517.01 138.224C517.015 139.476 518.825 143.346 521.031 146.825L525.044 153.15L529.772 149.213C537.524 142.759 540.579 141.54 549 141.54C560.55 141.54 566.987 146.4 566.996 155.127L567 158.753L556.75 158.914C544.275 159.109 535.539 160.401 529.811 162.897C517.001 168.48 511.404 176.9 512.218 189.361C512.934 200.333 518.423 208.781 527.218 212.449C535.956 216.094 554.103 213.64 561.513 207.811C562.986 206.652 565.274 205.585 566.596 205.44C568.703 205.209 569 205.584 569 208.481C569 210.572 569.581 212.009 570.582 212.393C572.653 213.188 580.502 213.167 586.457 212.351L591.192 211.702L590.767 181.601C590.389 154.792 590.122 150.833 588.323 145.401C584.611 134.19 577.698 126.729 567.89 123.35C561.989 121.317 545.762 120.735 539 122.314ZM437.142 125.999C424.246 130.639 416.239 141.893 413.858 158.728C410.916 179.531 418.955 197.422 434.736 205.191C446.229 210.849 458.997 210.231 468.879 203.539C471.421 201.818 474.737 200.323 476.25 200.216C478.88 200.031 479 200.224 479 204.625C479 210.423 475.891 216.145 470.971 219.401C466.629 222.274 458.014 225 453.276 225C447.914 225 435.234 222.078 429.401 219.499C426.452 218.195 423.854 217.436 423.627 217.814C422.426 219.813 418.928 233.371 419.338 234.438C419.601 235.125 424.246 237.166 429.659 238.975C437.825 241.703 441.495 242.348 451.22 242.767C464.953 243.359 472.818 242.102 481.668 237.903C489.412 234.228 496.188 226.97 498.036 220.372C499.529 215.04 499.481 217.339 499.204 164.25L499 125H489H479V128.883C479 134.353 476.665 134.633 469.379 130.035C466.146 127.995 461.97 125.802 460.101 125.163C454.856 123.369 443.283 123.79 437.142 125.999ZM641.657 125.93C638.993 127.001 634.757 129.48 632.243 131.439C625.833 136.432 625.534 136.279 625.978 128.215L626.159 124.931L615.33 125.215C609.373 125.372 604.612 125.837 604.75 126.25C604.888 126.663 605 152.665 605 184.034V241.068L615.75 240.784L626.5 240.5L626.775 224.25C627.025 209.456 627.209 208 628.825 208C629.801 208 631.076 207.524 631.659 206.941C632.404 206.196 634.747 206.998 639.566 209.647C645.95 213.156 646.997 213.415 654.978 213.456C662.682 213.496 664.209 213.171 670.205 210.219C680.813 204.998 689.103 194.192 691.939 181.888C692.496 179.475 692.962 173.215 692.976 167.978C693.027 147.756 685.252 133.066 671.122 126.688C664.374 123.642 648.371 123.23 641.657 125.93ZM732.5 125.357C717.681 130.222 708.948 140.306 705.514 156.517C701.427 175.81 705.898 193.223 717.711 204.019C724.661 210.371 731.894 213.094 743.5 213.728C756.706 214.449 765.707 211.164 775.25 202.14C777.313 200.19 779 197.959 779 197.183C779 196.407 776.685 193.099 773.856 189.833L768.711 183.895L765.857 187.358C761.715 192.383 755.652 195 748.152 195C736.285 195 728.751 189.514 726.544 179.266L725.848 176.031L754.174 175.766L782.5 175.5L782.792 168.337C783.335 155.015 777.834 139.574 770.138 132.816C763.476 126.967 756.617 124.541 746 124.279C740.217 124.136 734.935 124.558 732.5 125.357ZM359.024 140.75C361.318 146.663 364.471 154.934 366.029 159.13L368.861 166.761L365.181 167.369C363.156 167.704 356.47 167.983 350.323 167.989L339.146 168L344.962 150.75C348.16 141.262 351.1 132.712 351.496 131.75C353.035 128 354.976 130.32 359.024 140.75ZM755.01 144.25C759.654 147.411 762.057 151.009 762.694 155.754L763.241 159.835L744.871 160.179C734.767 160.368 726.325 160.418 726.112 160.29C725.25 159.773 728.421 150.735 730.304 148.34C733.946 143.711 737.923 142.008 745.102 142.004C750.307 142.001 752.404 142.476 755.01 144.25ZM655.219 144.044C660.059 145.388 664.545 149.23 667.281 154.376C669.092 157.781 669.477 160.157 669.487 168C669.502 179.005 667.808 183.412 661.642 188.402C658.562 190.895 656.812 191.481 651.419 191.824C639.56 192.579 631.687 187.42 628.543 176.833C624.588 163.515 629.473 150.482 640.31 145.436C645.982 142.795 649.53 142.464 655.219 144.044ZM464.616 145.913C473.944 150.149 479.454 164.467 475.847 175.101C473.921 180.778 470.95 184.115 465.599 186.606C457.291 190.475 449.388 189.603 443.658 184.186C432.676 173.804 434.12 153.386 446.366 145.919C450.479 143.411 459.1 143.408 464.616 145.913ZM185.25 176.066L182 177.057L185.136 183.279C190.87 194.655 197.878 206.58 199.909 208.418C201.013 209.416 205.197 211.113 209.208 212.189C218.72 214.74 222.068 216.393 226.565 220.761C230.826 224.898 233.54 230.491 234.514 237.135C235.157 241.525 235.386 241.801 238.846 242.374C243.397 243.126 269.33 243.194 271.247 242.459C273.291 241.674 271.828 232.394 267.987 221.779C260.476 201.021 245.05 185.456 224.835 178.24C218.418 175.95 215.685 175.588 203 175.348C195.025 175.197 187.038 175.52 185.25 176.066ZM567.584 179.25C565.811 190.469 553.868 198.011 542.741 194.939C538.212 193.688 536 190.712 536 185.866C536 181.357 540.107 177.406 545.779 176.458C547.826 176.116 549.95 175.684 550.5 175.497C551.05 175.311 555.27 175.122 559.878 175.079L568.256 175L567.584 179.25ZM114.828 239.748L96.156 240.044L95.026 245.272C88.222 276.729 90.122 302.655 100.991 326.637C111.081 348.9 132.88 368.386 156 375.809C167.451 379.485 174.148 380.274 189.722 379.783C203.091 379.361 205.429 379.004 214.244 376.034C231.151 370.338 247.402 358.478 258.673 343.608C264.333 336.142 271.242 321.759 273.377 313C275.637 303.724 277.157 287.979 276.804 277.5L276.5 268.5L265.75 268.521C259.837 268.532 237.9 268.645 217 268.771L179 269V286V303H208.611H238.223L237.534 306.75C235.33 318.74 222.952 334.109 210.887 339.834C194.563 347.579 171.049 345.89 154.214 335.762C142.515 328.724 132.578 314.141 129.504 299.5C126.613 285.728 128.07 263.523 132.981 246.503C135.306 238.444 135.221 238.933 134.25 239.227C133.838 239.351 125.098 239.586 114.828 239.748ZM570 268.837C570 287.106 569.622 287.771 561.723 283.394C557.22 280.899 555.467 280.508 549 280.559C537.408 280.65 529.712 285.827 524.633 296.949C521.475 303.864 521.608 319.526 524.886 326.779C527.744 333.105 535.171 340.135 540.764 341.811C549.429 344.407 559.52 342.882 565.665 338.049C568.805 335.579 572.498 336.857 571.481 340.061C570.909 341.863 571.4 342 578.433 342H586V299C586 275.35 586.112 255.663 586.25 255.25C586.388 254.837 582.788 254.369 578.25 254.21L570 253.919V268.837ZM419.5 301V342H444.25H469V334.5V327H453H437V293.5V260H428.25H419.5V301ZM481 274.5V282H476.5H472V288.455V294.909L475.435 295.554C477.324 295.908 479.305 295.93 479.836 295.601C480.438 295.229 480.944 301.508 481.178 312.252C481.578 330.625 482.14 333.007 487.183 337.716C490.466 340.781 497.276 343.001 503.376 342.994C509.162 342.988 515.598 341.459 516.59 339.855C516.954 339.266 516.443 336.114 515.455 332.851C514.026 328.133 513.335 327.063 512.079 327.629C508.338 329.314 501.9 329.22 499.945 327.45C498.179 325.852 498 324.275 498 310.345V295H507H516V288.5V282H506.868H497.737L498.218 274.5L498.7 267H489.85H481V274.5ZM618.344 279.978C612.202 281.287 604.503 284.836 601.98 287.521L599.763 289.881L601.894 293.328C605.54 299.227 606.318 299.484 611.443 296.481C619.026 292.037 632.315 292.06 636.019 296.523C636.667 297.304 637.556 299.531 637.994 301.472C638.652 304.392 638.506 305.011 637.145 305.063C621.265 305.674 613.952 306.789 608.579 309.417C602.493 312.395 599.467 316.058 598.392 321.75C597.064 328.774 600.488 336.39 606.922 340.726C612.736 344.644 628.595 343.391 633.895 338.595C634.864 337.718 636.635 337 637.829 337C639.478 337 640 337.601 640 339.5C640 341.937 640.184 342 647.25 342.001L654.5 342.003L654 318.251C653.501 294.551 653.494 294.49 650.751 289.824C647.01 283.459 640.04 280.009 629.847 279.477C625.806 279.266 620.63 279.491 618.344 279.978ZM563.606 297.478C566.896 299.633 569.95 306.372 569.978 311.538C570.009 317.262 566.3 324.1 562 326.248C554.086 330.202 544.461 327.363 540.752 319.98C537.213 312.937 539.621 300.592 545.222 297.066C550.267 293.89 558.41 294.073 563.606 297.478ZM638.323 319.25C636.792 326.28 631.959 330 624.354 330C618.692 330 614.993 327.898 615.015 324.693C615.053 319.361 619.827 317.014 630.656 317.006C638.595 317 638.8 317.06 638.323 319.25Z" fill="white"/>
</svg>
